<?xml version="1.0" encoding="utf-8"?><svg xmlns="http://www.w3.org/2000/svg" xmlns:xlink="http://www.w3.org/1999/xlink">
	<symbol viewBox="0 0 25 25" id="instagram">
		<g clip-path="url(#aclip0_2_593)">
			<path d="M12.5 2.251c3.34 0 3.735.015 5.049.073 1.22.054 1.88.259 2.32.43.58.225 1 .498 1.435.933.44.439.708.854.932 1.435.171.44.376 1.104.43 2.32.059 1.318.073 1.713.073 5.048 0 3.34-.014 3.736-.073 5.05-.054 1.22-.259 1.879-.43 2.318a3.864 3.864 0 01-.932 1.436 3.85 3.85 0 01-1.436.933c-.44.17-1.103.375-2.32.43-1.317.058-1.713.073-5.048.073-3.34 0-3.735-.015-5.049-.074-1.22-.053-1.88-.258-2.32-.43a3.865 3.865 0 01-1.435-.932 3.844 3.844 0 01-.932-1.436c-.171-.44-.376-1.103-.43-2.319-.059-1.318-.073-1.714-.073-5.049 0-3.34.014-3.735.073-5.049.054-1.22.259-1.88.43-2.319a3.866 3.866 0 01.932-1.435 3.85 3.85 0 011.436-.933c.44-.171 1.103-.376 2.32-.43 1.313-.058 1.708-.073 5.048-.073zM12.5 0C9.106 0 8.682.015 7.349.073 6.02.132 5.107.347 4.316.654A6.101 6.101 0 002.1 2.1 6.125 6.125 0 00.654 4.312c-.307.795-.522 1.704-.58 3.032C.013 8.682 0 9.106 0 12.5c0 3.394.015 3.818.073 5.151.059 1.329.274 2.242.581 3.033A6.101 6.101 0 002.1 22.9a6.11 6.11 0 002.212 1.44c.795.308 1.704.523 3.032.582 1.333.058 1.758.073 5.151.073 3.394 0 3.819-.015 5.152-.073 1.328-.059 2.24-.274 3.032-.581a6.11 6.11 0 002.212-1.44 6.11 6.11 0 001.44-2.212c.308-.796.523-1.705.581-3.033.059-1.333.073-1.758.073-5.151 0-3.394-.014-3.818-.073-5.151-.058-1.329-.273-2.242-.58-3.033A5.856 5.856 0 0022.9 2.1 6.11 6.11 0 0020.69.66c-.796-.308-1.705-.523-3.033-.582C16.318.015 15.894 0 12.5 0z" />
			<path d="M12.5 6.08a6.422 6.422 0 00-6.42 6.42 6.423 6.423 0 006.42 6.42 6.423 6.423 0 006.42-6.42 6.423 6.423 0 00-6.42-6.42zm0 10.585a4.166 4.166 0 11.001-8.331 4.166 4.166 0 01-.001 8.331zm8.174-10.84a1.5 1.5 0 11-2.999 0 1.5 1.5 0 012.999 0z" />
		</g>
		<defs>
			<clipPath id="aclip0_2_593">
				<path d="M0 0h25v25H0z" />
			</clipPath>
		</defs>
	</symbol>
	<symbol viewBox="0 0 40 40" id="logo">
		<path fill-rule="evenodd" clip-rule="evenodd" d="M20 38c-9.941 0-18-8.059-18-18S10.059 2 20 2s18 8.059 18 18-8.059 18-18 18zM0 20C0 8.954 8.954 0 20 0s20 8.954 20 20-8.954 20-20 20S0 31.046 0 20zM35.583 5.837l2.125-2.13-1.416-1.413-2.125 2.131a1 1 0 101.416 1.412zm-4.25 4.263a1 1 0 10-1.416-1.412l-4.25 4.262a1 1 0 101.416 1.412l4.25-4.262zm-8.5 8.525a1 1 0 10-1.416-1.412l-4.25 4.262a1 1 0 101.416 1.412l4.25-4.262zm-8.5 8.525a1 1 0 10-1.416-1.412L8.667 30a1 1 0 101.416 1.412l4.25-4.262zm-8.5 8.525a1 1 0 10-1.416-1.412l-2.125 2.13 1.416 1.413 2.125-2.131z" />
	</symbol>
</svg>