<?xml version="1.0" standalone="no"?>
<!DOCTYPE svg PUBLIC "-//W3C//DTD SVG 20010904//EN"
 "http://www.w3.org/TR/2001/REC-SVG-20010904/DTD/svg10.dtd">
<svg version="1.0" xmlns="http://www.w3.org/2000/svg"
 width="700.000000pt" height="700.000000pt" viewBox="0 0 700.000000 700.000000"
 preserveAspectRatio="xMidYMid meet">
<metadata>
Created by potrace 1.14, written by Peter Selinger 2001-2017
</metadata>
<g transform="translate(0.000000,700.000000) scale(0.100000,-0.100000)"
fill="#000000" stroke="none">
<path d="M3278 6995 c-1 -1 -42 -5 -89 -9 -47 -4 -95 -8 -105 -10 -10 -2 -48
-7 -84 -12 -36 -4 -67 -8 -70 -9 -3 -1 -25 -5 -50 -9 -25 -4 -101 -21 -170
-38 -69 -16 -135 -31 -147 -34 -40 -8 -264 -84 -367 -126 -124 -49 -349 -158
-434 -210 -34 -21 -67 -38 -72 -38 -6 0 -10 -4 -10 -10 0 -5 -5 -10 -11 -10
-9 0 -190 -119 -239 -157 -8 -6 -64 -50 -125 -98 -573 -457 -1007 -1124 -1190
-1832 -14 -55 -28 -111 -30 -124 -3 -13 -12 -58 -20 -99 -8 -41 -17 -89 -19
-105 -3 -17 -7 -46 -11 -66 -6 -40 -10 -74 -22 -199 -15 -162 -8 -591 12 -711
2 -13 6 -46 9 -74 47 -408 239 -953 466 -1318 30 -48 60 -95 65 -105 24 -42
133 -191 208 -285 162 -201 345 -382 557 -552 92 -74 370 -265 386 -265 4 0
15 -6 23 -14 48 -41 385 -200 551 -261 238 -86 490 -149 719 -181 25 -3 57 -8
71 -10 163 -25 682 -25 842 1 13 2 46 7 73 10 74 11 87 13 120 19 17 4 46 9
65 12 95 16 309 73 450 121 557 189 1090 542 1480 982 36 41 70 79 76 85 29
30 185 242 240 326 122 187 240 409 315 597 66 163 147 422 175 558 16 75 54
300 60 350 4 33 9 76 11 95 8 71 10 517 3 595 -17 172 -22 220 -25 225 -2 3
-6 30 -10 60 -3 30 -10 71 -15 90 -5 19 -12 51 -15 70 -23 135 -102 396 -177
585 -145 364 -376 734 -646 1034 -37 42 -75 82 -85 91 -10 8 -23 23 -28 32 -7
14 -1 12 27 -7 42 -29 105 -33 157 -12 18 8 121 103 229 212 l198 198 -121
118 c-66 66 -123 119 -128 119 -15 0 -396 -389 -408 -417 -19 -43 -15 -109 8
-155 21 -40 20 -40 -52 29 -491 470 -1173 806 -1839 908 -25 4 -53 9 -62 11
-9 1 -43 6 -75 9 -32 4 -76 9 -98 11 -45 6 -541 14 -547 9z m522 -358 c14 -3
52 -8 84 -11 78 -7 107 -12 301 -50 108 -21 345 -95 482 -150 403 -162 748
-391 1058 -701 355 -354 609 -765 765 -1235 37 -111 77 -256 86 -310 2 -14 9
-45 14 -70 18 -87 34 -194 47 -315 10 -97 10 -483 1 -580 -13 -123 -30 -238
-54 -355 -9 -41 -18 -84 -20 -95 -9 -50 -87 -302 -118 -382 -115 -300 -280
-588 -489 -852 -76 -98 -291 -322 -382 -402 -476 -412 -1023 -660 -1665 -753
-150 -22 -536 -29 -695 -13 -44 5 -96 10 -115 12 -65 7 -224 36 -329 61 -385
90 -766 263 -1096 497 -55 39 -102 73 -105 76 -3 3 -27 24 -55 46 -127 101
-324 296 -437 431 -367 444 -612 989 -692 1544 -26 177 -31 257 -31 470 0 206
10 356 29 465 3 17 8 48 11 70 17 110 92 404 120 471 8 19 14 35 14 37 -1 11
82 217 119 297 120 252 301 529 482 735 67 77 266 270 350 341 490 412 1132
677 1745 720 44 3 82 8 85 11 6 5 458 -4 490 -10z"/>
<path d="M5300 5523 c-27 -5 -778 -746 -827 -817 -40 -56 -39 -137 1 -194 43
-63 106 -86 191 -68 35 7 84 52 437 405 285 285 403 409 416 440 35 78 8 165
-67 212 -44 29 -82 34 -151 22z"/>
<path d="M3800 4024 c-35 -15 -805 -786 -827 -829 -22 -40 -21 -112 1 -157 37
-76 144 -114 223 -78 42 20 806 779 832 827 8 15 15 51 15 80 -1 124 -127 206
-244 157z"/>
<path d="M2309 2529 c-19 -9 -212 -197 -430 -416 -418 -419 -416 -416 -411
-501 4 -85 86 -162 172 -162 70 0 87 14 487 416 216 216 399 404 408 418 27
40 30 108 7 159 -39 87 -151 129 -233 86z"/>
<path d="M858 1050 c-21 -4 -48 -15 -60 -26 -53 -46 -388 -383 -388 -391 0 -8
86 -98 194 -203 l46 -44 191 189 c105 105 199 207 210 227 68 131 -44 273
-193 248z"/>
</g>
</svg>
